<svg width="20" height="16" viewBox="0 0 20 16" fill="none" xmlns="http://www.w3.org/2000/svg">
<path d="M2.65546 3.21121C2.67987 2.96924 2.58631 2.72727 2.40733 2.56323L0.572812 0.332194V0H6.27569L10.685 9.74846L14.5615 0H20V0.332194L18.4299 1.84962C18.2957 1.95215 18.2265 2.1244 18.255 2.29255V13.4477C18.2265 13.6159 18.2957 13.7881 18.4299 13.8906L19.9634 15.4081V15.7403H12.247V15.4081L13.8375 13.8537C13.9921 13.6979 13.9921 13.6487 13.9921 13.4108V4.39645L9.5705 15.7116H8.97255L3.83102 4.39645V11.9795C3.78627 12.2994 3.89203 12.6193 4.11575 12.8489L6.18213 15.3753V15.7074H0.324684V15.3794L2.39106 12.8489C2.61072 12.6193 2.71241 12.2953 2.65546 11.9795V3.21121Z" fill="white"/>
</svg>
