<svg width="21" height="19" viewBox="0 0 21 19" fill="none" xmlns="http://www.w3.org/2000/svg">
<path d="M18.8298 5.21742C18.8431 5.40392 18.8431 5.59046 18.8431 5.77695C18.8431 11.4654 14.5152 18.0197 6.60507 18.0197C4.16811 18.0197 1.90429 17.3136 0 16.0881C0.346246 16.128 0.679129 16.1413 1.0387 16.1413C3.04948 16.1413 4.90053 15.462 6.37868 14.3029C4.48771 14.263 2.90302 13.024 2.35703 11.3188C2.62339 11.3588 2.8897 11.3854 3.16938 11.3854C3.55555 11.3854 3.94176 11.3321 4.30129 11.2389C2.33043 10.8392 0.852232 9.10741 0.852232 7.01588V6.96261C1.42483 7.28234 2.09072 7.48216 2.79645 7.50877C1.6379 6.73609 0.878876 5.41725 0.878876 3.92519C0.878876 3.1259 1.0919 2.39319 1.46479 1.75374C3.58215 4.36482 6.76485 6.06998 10.3337 6.25652C10.2671 5.9368 10.2272 5.60378 10.2272 5.27073C10.2272 2.89942 12.1448 0.967773 14.5284 0.967773C15.7669 0.967773 16.8855 1.48732 17.6712 2.3266C18.6433 2.1401 19.5754 1.7804 20.4011 1.2875C20.0815 2.28666 19.4023 3.12594 18.5101 3.65877C19.3757 3.56557 20.2147 3.32572 20.987 2.99271C20.4012 3.84527 19.6687 4.60458 18.8298 5.21742Z" fill="white"/>
</svg>
